<svg width="26" height="25" viewBox="0 0 26 25" fill="none" xmlns="http://www.w3.org/2000/svg">
<path d="M21.2604 22.9167L19.0483 21.0417L17.8013 19.9271L16.4829 18.75L17.0246 20.5823H5.35925C4.79821 20.5804 4.26091 20.3643 3.86541 19.9817C3.46991 19.5991 3.24856 19.0811 3.25 18.5417V5.16354C3.24913 4.62444 3.47074 4.10702 3.86617 3.72484C4.26161 3.34266 4.79858 3.12693 5.35925 3.125H19.1512C19.7118 3.12693 20.2488 3.34266 20.6442 3.72484C21.0397 4.10702 21.2613 4.62444 21.2604 5.16354V22.9167ZM16.3583 14.0708C15.9015 14.6599 15.2439 15.0758 14.5004 15.2458C14.8059 15.6208 15.1743 16.0448 15.1775 16.049C15.7897 16.0614 16.396 15.9311 16.9444 15.6691C17.4929 15.4072 17.9672 15.0214 18.3267 14.5448C18.2894 12.5393 17.7828 10.5676 16.8447 8.77604C16.0189 8.15288 15.0135 7.7892 13.9652 7.73438H13.9533L13.8092 7.89271C14.7456 8.13453 15.6188 8.5625 16.3724 9.14896C15.4135 8.64209 14.3612 8.31943 13.2741 8.19896C12.5832 8.12517 11.8855 8.13182 11.1962 8.21875C11.1475 8.21968 11.099 8.22456 11.0511 8.23333H11.0208C10.213 8.32276 9.42479 8.53367 8.68508 8.85833C8.31458 9.02188 8.08708 9.14063 8.07733 9.14479C8.06758 9.14896 8.07733 9.14479 8.07733 9.1375C8.87683 8.53333 9.79983 8.09583 10.7846 7.85521L10.6762 7.73646H10.6697C9.62151 7.79142 8.61622 8.15509 7.79025 8.77813C6.84873 10.5685 6.34201 12.5409 6.30825 14.5469C6.66317 15.0264 7.13547 15.4145 7.68341 15.6768C8.23135 15.9392 8.83805 16.0677 9.44992 16.051C9.44992 16.051 9.83775 15.5969 10.14 15.2292C9.41525 15.054 8.77665 14.6415 8.33408 14.0625C8.34167 14.0677 8.44892 14.1375 8.62225 14.2292C8.63308 14.2427 8.64825 14.2531 8.6645 14.2604C8.67821 14.2696 8.6927 14.2776 8.70783 14.2844C8.96444 14.4238 9.23172 14.5443 9.50733 14.6448C9.99808 14.8323 10.5062 14.975 11.024 15.0719C11.4779 15.1542 11.9383 15.1969 12.3998 15.1969C12.8332 15.1969 13.2643 15.1583 13.6901 15.0823C14.2026 14.9958 14.7031 14.8532 15.1818 14.6573C15.5954 14.5044 15.99 14.3077 16.3583 14.0708V14.0708ZM14.1505 13.626C13.9199 13.6456 13.6886 13.5976 13.4869 13.4886C13.2851 13.3795 13.1224 13.2143 13.02 13.0147C12.9175 12.8151 12.8802 12.5904 12.9129 12.3701C12.9456 12.1498 13.0468 11.9441 13.2032 11.7801C13.3596 11.616 13.5639 11.5012 13.7893 11.4507C14.0148 11.4003 14.2508 11.4165 14.4665 11.4972C14.6822 11.578 14.8674 11.7196 14.998 11.9033C15.1285 12.0871 15.1983 12.3045 15.1981 12.5271C15.2219 13.1083 14.7539 13.6 14.1494 13.626H14.1505ZM10.3935 13.626C10.1076 13.6021 9.84135 13.4759 9.6474 13.2725C9.45346 13.069 9.34587 12.8031 9.34587 12.5271C9.34587 12.2511 9.45346 11.9851 9.6474 11.7817C9.84135 11.5782 10.1076 11.4521 10.3935 11.4281C10.5287 11.4284 10.6624 11.4548 10.7867 11.5058C10.911 11.5568 11.0234 11.6314 11.1172 11.725C11.3327 11.9396 11.4498 12.2281 11.4422 12.526C11.4542 12.8056 11.3505 13.0784 11.1537 13.2846C10.9569 13.4908 10.6832 13.6136 10.3924 13.626H10.3935Z" fill="white"/>
</svg>
