<svg width="18" height="20" viewBox="0 0 18 20" fill="none" xmlns="http://www.w3.org/2000/svg">
<g clip-path="url(#clip0_134_17)">
<path d="M15.625 1.25H1.875C0.839844 1.25 0 2.08984 0 3.125V16.875C0 17.9102 0.839844 18.75 1.875 18.75H15.625C16.6602 18.75 17.5 17.9102 17.5 16.875V3.125C17.5 2.08984 16.6602 1.25 15.625 1.25ZM10.832 16.2383C10.5039 16.2969 10.3828 16.0938 10.3828 15.9258C10.3828 15.7148 10.3906 14.6367 10.3906 13.7656C10.3906 13.1562 10.1875 12.7695 9.94922 12.5664C11.3945 12.4063 12.918 12.207 12.918 9.71094C12.918 9 12.6641 8.64453 12.25 8.1875C12.3164 8.01953 12.5391 7.32813 12.1836 6.42969C11.6406 6.26172 10.3984 7.12891 10.3984 7.12891C9.88281 6.98437 9.32422 6.91016 8.77344 6.91016C8.22266 6.91016 7.66406 6.98437 7.14844 7.12891C7.14844 7.12891 5.90625 6.26172 5.36328 6.42969C5.00781 7.32422 5.22656 8.01563 5.29688 8.1875C4.88281 8.64453 4.6875 9 4.6875 9.71094C4.6875 12.1953 6.14453 12.4063 7.58984 12.5664C7.40234 12.7344 7.23437 13.0234 7.17578 13.4375C6.80469 13.6055 5.85547 13.8945 5.28906 12.8945C4.93359 12.2773 4.29297 12.2266 4.29297 12.2266C3.66016 12.2187 4.25 12.625 4.25 12.625C4.67188 12.8203 4.96875 13.5703 4.96875 13.5703C5.34766 14.7305 7.16016 14.3398 7.16016 14.3398C7.16016 14.8828 7.16797 15.7656 7.16797 15.9258C7.16797 16.0938 7.05078 16.2969 6.71875 16.2383C4.14062 15.375 2.33594 12.9219 2.33594 10.0547C2.33594 6.46875 5.07812 3.74609 8.66406 3.74609C12.25 3.74609 15.1562 6.46875 15.1562 10.0547C15.1602 12.9219 13.4102 15.3789 10.832 16.2383ZM7 13.8516C6.92578 13.8672 6.85547 13.8359 6.84766 13.7852C6.83984 13.7266 6.89063 13.6758 6.96484 13.6602C7.03906 13.6523 7.10937 13.6836 7.11719 13.7344C7.12891 13.7852 7.07812 13.8359 7 13.8516ZM6.62891 13.8164C6.62891 13.8672 6.57031 13.9102 6.49219 13.9102C6.40625 13.918 6.34766 13.875 6.34766 13.8164C6.34766 13.7656 6.40625 13.7227 6.48438 13.7227C6.55859 13.7148 6.62891 13.7578 6.62891 13.8164ZM6.09375 13.7734C6.07812 13.8242 6 13.8477 5.93359 13.8242C5.85937 13.8086 5.80859 13.75 5.82422 13.6992C5.83984 13.6484 5.91797 13.625 5.98437 13.6406C6.0625 13.6641 6.11328 13.7227 6.09375 13.7734ZM5.61328 13.5625C5.57812 13.6055 5.50391 13.5977 5.44531 13.5391C5.38672 13.4883 5.37109 13.4141 5.41016 13.3789C5.44531 13.3359 5.51953 13.3438 5.57813 13.4023C5.62891 13.4531 5.64844 13.5313 5.61328 13.5625ZM5.25781 13.207C5.22266 13.2305 5.15625 13.207 5.11328 13.1484C5.07031 13.0898 5.07031 13.0234 5.11328 12.9961C5.15625 12.9609 5.22266 12.9883 5.25781 13.0469C5.30078 13.1055 5.30078 13.1758 5.25781 13.207V13.207ZM5.00391 12.8281C4.96875 12.8633 4.91016 12.8437 4.86719 12.8047C4.82422 12.7539 4.81641 12.6953 4.85156 12.668C4.88672 12.6328 4.94531 12.6523 4.98828 12.6914C5.03125 12.7422 5.03906 12.8008 5.00391 12.8281ZM4.74219 12.5391C4.72656 12.5742 4.67578 12.582 4.63281 12.5547C4.58203 12.5312 4.55859 12.4883 4.57422 12.4531C4.58984 12.4297 4.63281 12.418 4.68359 12.4375C4.73438 12.4648 4.75781 12.5078 4.74219 12.5391Z" fill="white"/>
</g>
<defs>
<clipPath id="clip0_134_17">
<rect width="17.5" height="20" fill="white"/>
</clipPath>
</defs>
</svg>
