<svg width="18" height="20" viewBox="0 0 18 20" fill="none" xmlns="http://www.w3.org/2000/svg">
<g clip-path="url(#clip0_134_21)">
<path d="M9 7.91641C8.57616 7.91656 8.16189 8.03889 7.80956 8.26793C7.45723 8.49698 7.18267 8.82244 7.02058 9.20318C6.8585 9.58392 6.81617 10.0028 6.89896 10.407C6.98174 10.8111 7.18592 11.1823 7.48567 11.4736C7.78542 11.7649 8.16729 11.9633 8.583 12.0436C8.9987 12.1239 9.42957 12.0826 9.82113 11.9249C10.2127 11.7672 10.5473 11.5001 10.7828 11.1575C11.0183 10.8149 11.1439 10.4121 11.1439 10C11.1435 9.44739 10.9175 8.91754 10.5155 8.52686C10.1135 8.13618 9.5684 7.91661 9 7.91641V7.91641ZM14.0107 6.31484C13.9016 6.04603 13.7368 5.80188 13.5266 5.59754C13.3165 5.3932 13.0653 5.23302 12.7888 5.12695C11.9451 4.80313 9.93616 4.87578 9 4.87578C8.06384 4.87578 6.05692 4.80039 5.21076 5.12695C4.93427 5.23302 4.68314 5.3932 4.47296 5.59754C4.26278 5.80188 4.09803 6.04603 3.98893 6.31484C3.65625 7.13516 3.73058 9.09023 3.73058 9.99961C3.73058 10.909 3.65625 12.8617 3.99054 13.6848C4.09964 13.9536 4.26439 14.1977 4.47457 14.4021C4.68475 14.6064 4.93587 14.7666 5.21237 14.8727C6.05612 15.1965 8.06504 15.1238 9.00161 15.1238C9.93817 15.1238 11.9443 15.1992 12.7904 14.8727C13.0669 14.7666 13.3181 14.6064 13.5282 14.4021C13.7384 14.1977 13.9032 13.9536 14.0123 13.6848C14.3478 12.8645 14.2706 10.9094 14.2706 10C14.2706 9.09062 14.3478 7.13828 14.0123 6.31523L14.0107 6.31484ZM9 13.2031C8.34838 13.2031 7.7114 13.0153 7.16959 12.6633C6.62779 12.3113 6.20551 11.8111 5.95615 11.2258C5.70678 10.6405 5.64154 9.99645 5.76866 9.3751C5.89579 8.75376 6.20957 8.18301 6.67034 7.73505C7.1311 7.28708 7.71815 6.98202 8.35725 6.85842C8.99635 6.73483 9.65879 6.79826 10.2608 7.0407C10.8628 7.28314 11.3774 7.69369 11.7394 8.22044C12.1014 8.74719 12.2946 9.36648 12.2946 10C12.2952 10.4208 12.2103 10.8375 12.0449 11.2264C11.8795 11.6152 11.6369 11.9686 11.3308 12.2661C11.0248 12.5636 10.6614 12.7996 10.2614 12.9603C9.86147 13.1211 9.43281 13.2036 9 13.2031V13.2031ZM12.4304 7.41016C12.2783 7.41023 12.1296 7.36645 12.0031 7.28434C11.8766 7.20224 11.7779 7.0855 11.7197 6.94889C11.6614 6.81228 11.6461 6.66194 11.6758 6.51688C11.7054 6.37182 11.7786 6.23857 11.8861 6.13397C11.9937 6.02936 12.1307 5.95812 12.2799 5.92924C12.4291 5.90036 12.5837 5.91514 12.7242 5.97172C12.8648 6.0283 12.9849 6.12412 13.0694 6.24708C13.1539 6.37004 13.1991 6.51461 13.1991 6.6625C13.1995 6.76071 13.18 6.85803 13.1416 6.94889C13.1033 7.03974 13.0468 7.12234 12.9756 7.19195C12.9043 7.26156 12.8196 7.3168 12.7263 7.35452C12.6331 7.39223 12.5331 7.41167 12.4321 7.41172L12.4304 7.41016ZM16.0714 1.25H1.92857C1.41708 1.25 0.926543 1.44754 0.564865 1.79917C0.203188 2.15081 0 2.62772 0 3.125L0 16.875C0 17.3723 0.203188 17.8492 0.564865 18.2008C0.926543 18.5525 1.41708 18.75 1.92857 18.75H16.0714C16.5829 18.75 17.0735 18.5525 17.4351 18.2008C17.7968 17.8492 18 17.3723 18 16.875V3.125C18 2.62772 17.7968 2.15081 17.4351 1.79917C17.0735 1.44754 16.5829 1.25 16.0714 1.25V1.25ZM15.3836 12.5781C15.3317 13.5793 15.0967 14.4664 14.345 15.1953C13.5932 15.9242 12.6816 16.1574 11.653 16.2051C10.5919 16.2633 7.41054 16.2633 6.34942 16.2051C5.31964 16.1547 4.4104 15.9258 3.65746 15.1953C2.90451 14.4648 2.66786 13.5773 2.61884 12.5781C2.55897 11.5461 2.55897 8.45273 2.61884 7.42188C2.67067 6.4207 2.9029 5.53359 3.65746 4.80469C4.41201 4.07578 5.32366 3.84531 6.34942 3.79766C7.41054 3.73945 10.5919 3.73945 11.653 3.79766C12.6828 3.84805 13.5948 4.07695 14.345 4.80742C15.0951 5.53789 15.3346 6.42539 15.3836 7.42656C15.4434 8.45469 15.4434 11.5453 15.3836 12.5781Z" fill="white"/>
</g>
<defs>
<clipPath id="clip0_134_21">
<rect width="18" height="20" fill="white"/>
</clipPath>
</defs>
</svg>
