<svg width="26" height="26" viewBox="0 0 26 26" fill="none" xmlns="http://www.w3.org/2000/svg">
<path d="M20.28 4.3331H5.81749C5.63108 4.32436 5.44478 4.35248 5.26924 4.41584C5.09371 4.4792 4.9324 4.57656 4.79454 4.70234C4.65668 4.82813 4.54498 4.97987 4.46584 5.14887C4.3867 5.31788 4.34167 5.50083 4.33333 5.68726V20.1823C4.34425 20.5724 4.50412 20.9436 4.78012 21.2196C5.05613 21.4956 5.42732 21.6555 5.81749 21.6664H20.28C20.6593 21.6495 21.0169 21.4847 21.2761 21.2073C21.5353 20.9298 21.6755 20.5619 21.6667 20.1823V5.68726C21.6698 5.50581 21.6358 5.32564 21.5668 5.15779C21.4977 4.98994 21.3952 4.83796 21.2653 4.71116C21.1355 4.58437 20.9811 4.48543 20.8117 4.42042C20.6423 4.35541 20.4613 4.32569 20.28 4.3331V4.3331ZM9.75 18.7848H7.22583V11.0606H9.75V18.7848ZM8.54749 9.8906C8.37135 9.89674 8.19585 9.86638 8.032 9.80145C7.86815 9.73651 7.7195 9.63839 7.59538 9.51326C7.47126 9.38813 7.37436 9.23868 7.31077 9.07431C7.24717 8.90993 7.21825 8.73418 7.22583 8.5581C7.21804 8.38011 7.24754 8.20246 7.31244 8.03654C7.37734 7.87063 7.4762 7.72011 7.60269 7.59464C7.72917 7.46918 7.88049 7.37154 8.04692 7.30798C8.21336 7.24443 8.39124 7.21637 8.56916 7.2256C8.7453 7.21946 8.92081 7.24981 9.08466 7.31475C9.24851 7.37968 9.39716 7.4778 9.52128 7.60293C9.64539 7.72807 9.74229 7.87752 9.80589 8.04189C9.86948 8.20626 9.8984 8.38201 9.89083 8.5581C9.89862 8.73609 9.86911 8.91373 9.80422 9.07965C9.73932 9.24557 9.64045 9.39609 9.51397 9.52155C9.38748 9.64702 9.23617 9.74466 9.06973 9.80821C8.9033 9.87177 8.72541 9.89983 8.54749 9.8906V9.8906ZM18.785 18.7848H16.25V14.5598C16.25 13.5523 15.8925 12.8589 14.9933 12.8589C14.714 12.8614 14.4423 12.9501 14.2153 13.113C13.9884 13.2759 13.8174 13.505 13.7258 13.7689C13.6554 13.9668 13.6259 14.1769 13.6392 14.3864V18.7848H11.1475V11.0606H13.6392V12.1439C13.8607 11.737 14.1904 11.3991 14.5919 11.1678C14.9934 10.9365 15.451 10.8207 15.9142 10.8331C17.55 10.8331 18.785 11.9164 18.785 14.2239V18.7848Z" fill="white"/>
</svg>
