<svg width="18" height="18" viewBox="0 0 18 18" fill="none" xmlns="http://www.w3.org/2000/svg">
<path d="M15 5.64844C14.5625 5.84375 14.0898 5.97656 13.582 6.04688C14.1133 5.73438 14.4766 5.27734 14.6719 4.67578C14.1641 4.97266 13.6406 5.17187 13.1016 5.27344C12.625 4.75781 12.0273 4.5 11.3086 4.5C10.6289 4.5 10.0488 4.74023 9.56836 5.2207C9.08789 5.70117 8.84766 6.28125 8.84766 6.96094C8.84766 7.1875 8.86719 7.375 8.90625 7.52344C7.89844 7.46875 6.95313 7.21484 6.07031 6.76172C5.1875 6.30859 4.4375 5.70312 3.82031 4.94531C3.59375 5.33594 3.48047 5.75 3.48047 6.1875C3.48047 7.07812 3.83594 7.76172 4.54688 8.23828C4.17969 8.23047 3.78906 8.12891 3.375 7.93359V7.95703C3.375 8.54297 3.57031 9.06445 3.96094 9.52148C4.35156 9.97852 4.83203 10.2617 5.40234 10.3711C5.17578 10.4336 4.97656 10.4648 4.80469 10.4648C4.70312 10.4648 4.55078 10.4492 4.34766 10.418C4.51172 10.9102 4.80273 11.3164 5.2207 11.6367C5.63867 11.957 6.11328 12.1211 6.64453 12.1289C5.73828 12.832 4.71875 13.1836 3.58594 13.1836C3.38281 13.1836 3.1875 13.1719 3 13.1484C4.15625 13.8828 5.41406 14.25 6.77344 14.25C7.64844 14.25 8.46875 14.1113 9.23438 13.834C10 13.5566 10.6562 13.1855 11.2031 12.7207C11.75 12.2559 12.2207 11.7207 12.6152 11.1152C13.0098 10.5098 13.3027 9.87695 13.4941 9.2168C13.6855 8.55664 13.7812 7.89844 13.7812 7.24219C13.7812 7.10156 13.7773 6.99609 13.7695 6.92578C14.2617 6.57422 14.6719 6.14844 15 5.64844ZM18 3.375V14.625C18 15.5547 17.6699 16.3496 17.0098 17.0098C16.3496 17.6699 15.5547 18 14.625 18H3.375C2.44531 18 1.65039 17.6699 0.990234 17.0098C0.330078 16.3496 0 15.5547 0 14.625V3.375C0 2.44531 0.330078 1.65039 0.990234 0.990234C1.65039 0.330078 2.44531 0 3.375 0H14.625C15.5547 0 16.3496 0.330078 17.0098 0.990234C17.6699 1.65039 18 2.44531 18 3.375Z" fill="white"/>
</svg>
